<svg id="SvgjsSvg1011" width="100%" height="100%" xmlns="http://www.w3.org/2000/svg" version="1.1" xlink="http://www.w3.org/1999/xlink" xmlns:svgjs="http://svgjs.com/svgjs" preserveAspectRatio="xMidYMid meet" viewBox="0 0 281.9704284667969 147" overflow="visible"><defs id="SvgjsDefs1012"></defs><g id="SvgjsG1013" transform="scale(0.4066021118969012)" opacity="1"><g id="SvgjsG1014" class="aTgmEGQDe" transform="translate(221.9136, 0) scale(0.9329327141473491)" light-content="false" non-strokable="false" fill="#1bf886"><circle cx="133.8" cy="133.8" r="133.8"></circle></g><g id="SvgjsG1015" class="Ll0-LCA4KU" transform="translate(258.58774800159114, 36.670813776699845) scale(1.763080282204043)" light-content="true" non-strokable="false" fill="#ffffff"><path d="M48.223 24.875v6.543c-16.82.922-30.195 14.875-30.195 31.922 0 17.648 14.328 31.973 31.973 31.973S81.97 80.989 81.97 63.34c0-17.191-13.598-31.234-30.621-31.941v-6.586c4.645 1.383 9.945.668 14.32-2.394 5.074-3.551 7.602-9.352 7.125-14.953a1.562 1.562 0 0 0-.902-1.286c-5.098-2.363-11.41-1.976-16.488 1.579a16.893 16.893 0 0 0-5.512 6.43 16.86 16.86 0 0 0-5.512-6.43C39.306 4.204 32.993 3.817 27.892 6.18a1.565 1.565 0 0 0-.898 1.286c-.477 5.601 2.05 11.402 7.125 14.953 4.308 3.015 9.512 3.75 14.105 2.457zm29.941 32.211a22.053 22.053 0 0 1-1.73 4.91c-2.204 4.516-5.489 5.16-9.079 5.094-1.484-.023-3.02-.188-4.527-.145-1.27.036-2.52.223-3.66.895-2.54 1.484-2.79 2.934-2.957 4.734-.152 1.641-.27 3.496-1.2 5.735-.859 2.062-1.808 2.988-2.71 3.422-.715.343-1.453.422-2.254.347-1.09-.105-2.363-.71-4.035-.168-1.61.528-1.606 1.438-1.942 2.274-.445 1.094-1.101 2.203-3.058 3.101-1.57.723-3.66.95-5.64.918A28.712 28.712 0 0 0 50 92.188c15.918 0 28.844-12.926 28.844-28.848a28.97 28.97 0 0 0-.68-6.254zM66.66 39.797c.46 6.027-5.172 10.457-9.996 11.043-2.27.277-3.246 1.656-3.875 3.258-.54 1.379-.856 2.914-1.3 4.289-1.505 4.672-7.353 6.297-10.899 2.11-1.125-1.333-2.176-1.231-3.25-1.126-1.227.125-2.484.242-3.836-.23-3.453-1.2-5.023-3.852-5.176-7.602-.039-.96-.593-1.98-1.187-2.886a15.807 15.807 0 0 0-1.059-1.438 28.738 28.738 0 0 0-4.93 16.125c0 8.36 3.563 15.895 9.254 21.168h.012s2.266.504 4.813.566c1.558.043 3.234-.058 4.48-.628 1.621-.747 1.547-1.805 1.942-2.676.484-1.082 1.226-2.121 3.39-2.828 1.852-.606 3.352-.309 4.649-.07.46.077.867.23 1.25.046.445-.219.757-.785 1.183-1.812 1.008-2.422.856-4.336 1.114-6.008.332-2.164 1.101-4.055 4.347-5.957 2.477-1.45 5.285-1.395 8.051-1.246 3.078.164 6.137.523 7.988-3.274 3.055-6.246 1.48-11.48 1.477-11.492a29.013 29.013 0 0 0-8.441-9.332zm-3.805-2.281A28.703 28.703 0 0 0 50 34.496c-8.8 0-16.69 3.953-21.98 10.172.512.59 1.156 1.383 1.739 2.27.91 1.387 1.632 3.008 1.691 4.476.094 2.317.95 4.036 3.078 4.778 1.188.414 2.273.054 3.344.008 1.672-.083 3.332.183 5.11 2.28 1.796 2.126 4.769 1.321 5.53-1.05.465-1.438.805-3.031 1.368-4.469 1.027-2.621 2.703-4.77 6.406-5.223 4.055-.492 9.086-4.726 6.57-10.223zM53.27 22.082c3.512.738 7.368.039 10.605-2.227 3.84-2.687 5.903-6.953 5.848-11.199v-.004c-3.976-1.5-8.687-1.023-12.527 1.664-3.234 2.266-5.207 5.653-5.715 9.203l11.922-8.347a1.565 1.565 0 0 1 2.176.387c.496.703.324 1.68-.383 2.171zm-4.96-2.563c-.512-3.55-2.485-6.937-5.72-9.203-3.843-2.687-8.554-3.164-12.53-1.664v.004c-.047 4.246 2.011 8.512 5.851 11.199 3.235 2.266 7.09 2.965 10.602 2.227L34.59 13.73a1.56 1.56 0 1 1 1.79-2.559z" fill-rule="evenodd"></path></g><g id="SvgjsG1016" class="text" transform="translate(342.8399993896485, 321.3728012207031) scale(1)" light-content="false" fill="#1bf886"><path d="M-145.89 0L-137.67 0L-134.55 -17.76L-117.93 -17.76L-121.05 0L-112.83 0L-105.45 -42L-113.67 -42L-116.61 -25.44L-133.23 -25.44L-130.29 -42L-138.51 -42Z M-80.49 0.72C-74.49 0.72 -69.64 -1.71 -65.94 -6.57C-62.24 -11.43 -60.39 -17.38 -60.39 -24.42C-60.39 -29.5 -61.73 -33.82 -64.41 -37.38C-67.09 -40.94 -70.97 -42.72 -76.05 -42.72C-80.29 -42.72 -84 -41.55 -87.18 -39.21C-90.36 -36.87 -92.73 -33.84 -94.29 -30.12C-95.85 -26.4 -96.63 -22.32 -96.63 -17.88C-96.63 -15.4 -96.33 -13.09 -95.73 -10.95C-95.13 -8.81 -94.22 -6.85 -93 -5.07C-91.78 -3.29 -90.1 -1.88 -87.96 -0.84C-85.82 0.2 -83.33 0.72 -80.49 0.72ZM-80.55 -7.08C-83.27 -7.08 -85.29 -8.13 -86.61 -10.23C-87.93 -12.33 -88.59 -14.88 -88.59 -17.88C-88.59 -22.36 -87.49 -26.32 -85.29 -29.76C-83.09 -33.2 -80.19 -34.92 -76.59 -34.92C-73.83 -34.92 -71.78 -33.89 -70.44 -31.83C-69.1 -29.77 -68.43 -27.3 -68.43 -24.42C-68.43 -19.54 -69.55 -15.43 -71.79 -12.09C-74.03 -8.75 -76.95 -7.08 -80.55 -7.08Z M-30.63 -34.2L-19.29 -34.2L-17.97 -42L-48.81 -42L-50.13 -34.2L-38.79 -34.2L-44.85 0L-36.69 0Z M-13.53 0L13.89 0L15.27 -7.68L-3.99 -7.68L2.07 -42L-6.15 -42Z M41.55 0.72C47.55 0.72 52.4 -1.71 56.1 -6.57C59.8 -11.43 61.65 -17.38 61.65 -24.42C61.65 -29.5 60.31 -33.82 57.63 -37.38C54.95 -40.94 51.07 -42.72 45.99 -42.72C41.75 -42.72 38.04 -41.55 34.86 -39.21C31.68 -36.87 29.31 -33.84 27.75 -30.12C26.19 -26.4 25.41 -22.32 25.41 -17.88C25.41 -15.4 25.71 -13.09 26.31 -10.95C26.91 -8.81 27.82 -6.85 29.04 -5.07C30.26 -3.29 31.94 -1.88 34.08 -0.84C36.22 0.2 38.71 0.72 41.55 0.72ZM41.49 -7.08C38.77 -7.08 36.75 -8.13 35.43 -10.23C34.11 -12.33 33.45 -14.88 33.45 -17.88C33.45 -22.36 34.55 -26.32 36.75 -29.76C38.95 -33.2 41.85 -34.92 45.45 -34.92C48.21 -34.92 50.26 -33.89 51.6 -31.83C52.94 -29.77 53.61 -27.3 53.61 -24.42C53.61 -19.54 52.49 -15.43 50.25 -12.09C48.01 -8.75 45.09 -7.08 41.49 -7.08Z M87.45 0.66C94.13 0.66 99.49 -2.72 103.53 -9.48L96.39 -12.54C95.63 -11.1 94.53 -9.87 93.09 -8.85C91.65 -7.83 89.99 -7.32 88.11 -7.32C85.83 -7.32 84.12 -8.32 82.98 -10.32C81.84 -12.32 81.27 -14.7 81.27 -17.46C81.27 -20.14 81.7 -22.77 82.56 -25.35C83.42 -27.93 84.78 -30.16 86.64 -32.04C88.5 -33.92 90.67 -34.86 93.15 -34.86C94.51 -34.86 95.78 -34.44 96.96 -33.6C98.14 -32.76 99.07 -31.58 99.75 -30.06L107.01 -33.18C106.17 -35.86 104.62 -38.11 102.36 -39.93C100.1 -41.75 97.15 -42.66 93.51 -42.66C89.39 -42.66 85.73 -41.44 82.53 -39C79.33 -36.56 76.92 -33.41 75.3 -29.55C73.68 -25.69 72.87 -21.5 72.87 -16.98C72.87 -11.86 74.11 -7.64 76.59 -4.32C79.07 -1 82.69 0.66 87.45 0.66Z M139.41 0L148.11 0L138.69 -26.28L153.69 -42L143.85 -42L125.55 -22.86L128.91 -42L120.69 -42L113.31 0L121.53 0L123.33 -10.26L132.57 -19.92Z"></path></g><g id="SvgjsG1017" class="text" transform="translate(346.7200012207031, 356.42279992370607) scale(1)" light-content="false" fill="#333333"><path d="M-341.36 0.29C-337.8 0.29 -336.01 -1.8 -336.01 -5.98L-336.01 -16.8L-336.88 -16.8L-336.88 -6.02C-336.88 -2.36 -338.37 -0.53 -341.36 -0.53C-344.36 -0.53 -345.85 -2.36 -345.85 -6.02L-345.85 -16.8L-346.72 -16.8L-346.72 -5.98C-346.72 -1.8 -344.93 0.29 -341.36 0.29Z M-323.44 0L-322.57 0L-322.57 -7.49C-322.57 -10.86 -323.88 -12.55 -326.51 -12.55C-327.24 -12.55 -327.96 -12.35 -328.64 -11.94C-329.33 -11.53 -329.83 -10.9 -330.13 -10.06L-330.13 -12.26L-331 -12.26L-331 0L-330.13 0L-330.13 -7.13C-330.13 -10.2 -328.95 -11.74 -326.58 -11.74C-324.48 -11.74 -323.44 -10.38 -323.44 -7.66Z M-314.56 0.29C-313.39 0.29 -312.48 0 -311.84 -0.58C-311.2 -1.15 -310.88 -1.92 -310.88 -2.88C-310.88 -3.44 -310.97 -3.92 -311.14 -4.33C-311.3 -4.74 -311.58 -5.09 -311.98 -5.39C-312.37 -5.68 -312.74 -5.92 -313.09 -6.11C-313.44 -6.29 -313.94 -6.51 -314.58 -6.77C-315.03 -6.94 -315.34 -7.07 -315.53 -7.15C-315.71 -7.23 -315.97 -7.36 -316.31 -7.55C-316.64 -7.73 -316.88 -7.9 -317.02 -8.06C-317.15 -8.22 -317.28 -8.43 -317.4 -8.69C-317.52 -8.94 -317.58 -9.22 -317.58 -9.53C-317.58 -10.2 -317.34 -10.74 -316.87 -11.14C-316.4 -11.54 -315.74 -11.74 -314.89 -11.74C-313.85 -11.74 -312.88 -11.32 -311.99 -10.49L-311.34 -11.04C-312.3 -12.05 -313.48 -12.55 -314.87 -12.55C-315.97 -12.55 -316.85 -12.27 -317.5 -11.7C-318.14 -11.13 -318.47 -10.41 -318.47 -9.53C-318.47 -8.68 -318.19 -8 -317.63 -7.48C-317.07 -6.96 -316.24 -6.49 -315.13 -6.07C-314.08 -5.67 -313.25 -5.23 -312.66 -4.75C-312.07 -4.27 -311.77 -3.65 -311.77 -2.88C-311.77 -2.11 -312.02 -1.53 -312.52 -1.13C-313.01 -0.73 -313.7 -0.53 -314.58 -0.53C-315.72 -0.53 -316.77 -1.06 -317.75 -2.14L-318.42 -1.56C-317.33 -0.33 -316.04 0.29 -314.56 0.29Z M-302.94 0.29C-301.63 0.29 -300.48 -0.14 -299.48 -0.98L-299.99 -1.61C-300.84 -0.92 -301.8 -0.58 -302.87 -0.58C-305.46 -0.58 -306.81 -2.34 -306.92 -5.88L-298.5 -5.88L-298.5 -6.14C-298.5 -8.29 -298.9 -9.89 -299.69 -10.96C-300.48 -12.02 -301.56 -12.55 -302.94 -12.55C-304.4 -12.55 -305.58 -11.98 -306.49 -10.85C-307.4 -9.71 -307.86 -8.14 -307.86 -6.14C-307.86 -4.14 -307.43 -2.57 -306.56 -1.43C-305.7 -0.28 -304.49 0.29 -302.94 0.29ZM-306.92 -6.67C-306.83 -8.38 -306.42 -9.66 -305.71 -10.5C-305 -11.34 -304.08 -11.76 -302.94 -11.76C-302.01 -11.76 -301.2 -11.38 -300.49 -10.61C-299.79 -9.84 -299.43 -8.53 -299.41 -6.67Z M-294.52 0L-293.65 0L-293.65 -6.79C-293.65 -8.41 -293.29 -9.61 -292.57 -10.4C-291.85 -11.2 -291.05 -11.59 -290.17 -11.59C-289.55 -11.59 -289.01 -11.46 -288.56 -11.18L-288.42 -12.05C-288.79 -12.38 -289.33 -12.55 -290.05 -12.55C-290.8 -12.55 -291.5 -12.31 -292.14 -11.82C-292.78 -11.33 -293.28 -10.61 -293.65 -9.65L-293.65 -12.26L-294.52 -12.26Z M-281.87 0.29C-280.56 0.29 -279.4 -0.14 -278.41 -0.98L-278.92 -1.61C-279.76 -0.92 -280.72 -0.58 -281.8 -0.58C-284.39 -0.58 -285.74 -2.34 -285.85 -5.88L-277.43 -5.88L-277.43 -6.14C-277.43 -8.29 -277.82 -9.89 -278.62 -10.96C-279.41 -12.02 -280.49 -12.55 -281.87 -12.55C-283.32 -12.55 -284.51 -11.98 -285.42 -10.85C-286.33 -9.71 -286.79 -8.14 -286.79 -6.14C-286.79 -4.14 -286.36 -2.57 -285.49 -1.43C-284.63 -0.28 -283.42 0.29 -281.87 0.29ZM-285.85 -6.67C-285.76 -8.38 -285.35 -9.66 -284.64 -10.5C-283.93 -11.34 -283 -11.76 -281.87 -11.76C-280.94 -11.76 -280.12 -11.38 -279.42 -10.61C-278.72 -9.84 -278.36 -8.53 -278.34 -6.67Z M-254.12 0L-254.12 -16.8L-254.89 -16.8L-260.56 -3.17L-261.06 -1.94L-261.56 -3.17L-267.23 -16.8L-268 -16.8L-268 0L-267.13 0L-267.13 -13.25L-267.13 -14.3L-266.7 -13.25L-261.06 0.29L-255.42 -13.25C-255.37 -13.38 -255.3 -13.56 -255.2 -13.79C-255.11 -14.02 -255.04 -14.19 -254.99 -14.3L-254.99 -13.25L-254.99 0Z M-248.51 -15.19C-248.3 -15.19 -248.13 -15.26 -248 -15.4C-247.88 -15.53 -247.81 -15.7 -247.81 -15.89C-247.81 -16.1 -247.88 -16.27 -248 -16.42C-248.13 -16.56 -248.3 -16.63 -248.51 -16.63C-248.7 -16.63 -248.86 -16.56 -249 -16.42C-249.14 -16.27 -249.2 -16.1 -249.2 -15.89C-249.2 -15.7 -249.14 -15.53 -249 -15.4C-248.86 -15.26 -248.7 -15.19 -248.51 -15.19ZM-248.94 0L-248.08 0L-248.08 -12.26L-248.94 -12.26Z M-239.87 0.29C-238.7 0.29 -237.8 0 -237.16 -0.58C-236.52 -1.15 -236.2 -1.92 -236.2 -2.88C-236.2 -3.44 -236.28 -3.92 -236.45 -4.33C-236.62 -4.74 -236.9 -5.09 -237.29 -5.39C-237.68 -5.68 -238.05 -5.92 -238.4 -6.11C-238.76 -6.29 -239.25 -6.51 -239.89 -6.77C-240.34 -6.94 -240.66 -7.07 -240.84 -7.15C-241.02 -7.23 -241.28 -7.36 -241.62 -7.55C-241.96 -7.73 -242.19 -7.9 -242.33 -8.06C-242.46 -8.22 -242.59 -8.43 -242.71 -8.69C-242.83 -8.94 -242.89 -9.22 -242.89 -9.53C-242.89 -10.2 -242.66 -10.74 -242.18 -11.14C-241.71 -11.54 -241.05 -11.74 -240.2 -11.74C-239.16 -11.74 -238.2 -11.32 -237.3 -10.49L-236.65 -11.04C-237.61 -12.05 -238.79 -12.55 -240.18 -12.55C-241.28 -12.55 -242.16 -12.27 -242.81 -11.7C-243.46 -11.13 -243.78 -10.41 -243.78 -9.53C-243.78 -8.68 -243.5 -8 -242.94 -7.48C-242.38 -6.96 -241.55 -6.49 -240.44 -6.07C-239.39 -5.67 -238.56 -5.23 -237.97 -4.75C-237.38 -4.27 -237.08 -3.65 -237.08 -2.88C-237.08 -2.11 -237.33 -1.53 -237.83 -1.13C-238.32 -0.73 -239.01 -0.53 -239.89 -0.53C-241.03 -0.53 -242.08 -1.06 -243.06 -2.14L-243.73 -1.56C-242.64 -0.33 -241.36 0.29 -239.87 0.29Z M-228.9 0.29C-227.73 0.29 -226.83 0 -226.19 -0.58C-225.55 -1.15 -225.23 -1.92 -225.23 -2.88C-225.23 -3.44 -225.31 -3.92 -225.48 -4.33C-225.65 -4.74 -225.93 -5.09 -226.32 -5.39C-226.71 -5.68 -227.08 -5.92 -227.44 -6.11C-227.79 -6.29 -228.28 -6.51 -228.92 -6.77C-229.37 -6.94 -229.69 -7.07 -229.87 -7.15C-230.06 -7.23 -230.32 -7.36 -230.65 -7.55C-230.99 -7.73 -231.22 -7.9 -231.36 -8.06C-231.5 -8.22 -231.62 -8.43 -231.74 -8.69C-231.86 -8.94 -231.92 -9.22 -231.92 -9.53C-231.92 -10.2 -231.69 -10.74 -231.22 -11.14C-230.74 -11.54 -230.08 -11.74 -229.24 -11.74C-228.2 -11.74 -227.23 -11.32 -226.33 -10.49L-225.68 -11.04C-226.64 -12.05 -227.82 -12.55 -229.21 -12.55C-230.32 -12.55 -231.19 -12.27 -231.84 -11.7C-232.49 -11.13 -232.81 -10.41 -232.81 -9.53C-232.81 -8.68 -232.53 -8 -231.97 -7.48C-231.41 -6.96 -230.58 -6.49 -229.48 -6.07C-228.42 -5.67 -227.6 -5.23 -227 -4.75C-226.41 -4.27 -226.12 -3.65 -226.12 -2.88C-226.12 -2.11 -226.36 -1.53 -226.86 -1.13C-227.36 -0.73 -228.04 -0.53 -228.92 -0.53C-230.06 -0.53 -231.12 -1.06 -232.09 -2.14L-232.76 -1.56C-231.68 -0.33 -230.39 0.29 -228.9 0.29Z M-220.62 -15.19C-220.41 -15.19 -220.24 -15.26 -220.12 -15.4C-219.99 -15.53 -219.92 -15.7 -219.92 -15.89C-219.92 -16.1 -219.99 -16.27 -220.12 -16.42C-220.24 -16.56 -220.41 -16.63 -220.62 -16.63C-220.81 -16.63 -220.98 -16.56 -221.11 -16.42C-221.25 -16.27 -221.32 -16.1 -221.32 -15.89C-221.32 -15.7 -221.25 -15.53 -221.11 -15.4C-220.98 -15.26 -220.81 -15.19 -220.62 -15.19ZM-221.05 0L-220.19 0L-220.19 -12.26L-221.05 -12.26Z M-211.16 0.29C-209.69 0.29 -208.52 -0.28 -207.64 -1.43C-206.76 -2.57 -206.32 -4.14 -206.32 -6.14C-206.32 -8.16 -206.76 -9.73 -207.64 -10.86C-208.52 -11.99 -209.69 -12.55 -211.16 -12.55C-212.64 -12.55 -213.81 -11.98 -214.69 -10.84C-215.57 -9.69 -216.01 -8.12 -216.01 -6.12C-216.01 -4.1 -215.57 -2.53 -214.69 -1.4C-213.81 -0.28 -212.64 0.29 -211.16 0.29ZM-211.16 -0.58C-212.43 -0.58 -213.4 -1.06 -214.07 -2.03C-214.74 -3 -215.08 -4.36 -215.08 -6.12C-215.08 -7.93 -214.74 -9.31 -214.07 -10.26C-213.4 -11.21 -212.43 -11.69 -211.16 -11.69C-209.9 -11.69 -208.93 -11.2 -208.26 -10.24C-207.59 -9.27 -207.25 -7.9 -207.25 -6.14C-207.25 -4.38 -207.59 -3.02 -208.27 -2.04C-208.95 -1.06 -209.92 -0.58 -211.16 -0.58Z M-194.65 0L-193.79 0L-193.79 -7.49C-193.79 -10.86 -195.1 -12.55 -197.72 -12.55C-198.46 -12.55 -199.17 -12.35 -199.86 -11.94C-200.55 -11.53 -201.04 -10.9 -201.35 -10.06L-201.35 -12.26L-202.21 -12.26L-202.21 0L-201.35 0L-201.35 -7.13C-201.35 -10.2 -200.16 -11.74 -197.8 -11.74C-195.7 -11.74 -194.65 -10.38 -194.65 -7.66Z M-183.18 -15.19C-182.97 -15.19 -182.8 -15.26 -182.68 -15.4C-182.55 -15.53 -182.48 -15.7 -182.48 -15.89C-182.48 -16.1 -182.55 -16.27 -182.68 -16.42C-182.8 -16.56 -182.97 -16.63 -183.18 -16.63C-183.37 -16.63 -183.54 -16.56 -183.67 -16.42C-183.81 -16.27 -183.88 -16.1 -183.88 -15.89C-183.88 -15.7 -183.81 -15.53 -183.67 -15.4C-183.54 -15.26 -183.37 -15.19 -183.18 -15.19ZM-183.61 0L-182.75 0L-182.75 -12.26L-183.61 -12.26Z M-174.54 0.29C-173.37 0.29 -172.47 0 -171.83 -0.58C-171.19 -1.15 -170.87 -1.92 -170.87 -2.88C-170.87 -3.44 -170.95 -3.92 -171.12 -4.33C-171.29 -4.74 -171.57 -5.09 -171.96 -5.39C-172.35 -5.68 -172.72 -5.92 -173.08 -6.11C-173.43 -6.29 -173.92 -6.51 -174.56 -6.77C-175.01 -6.94 -175.33 -7.07 -175.51 -7.15C-175.7 -7.23 -175.96 -7.36 -176.29 -7.55C-176.63 -7.73 -176.86 -7.9 -177 -8.06C-177.14 -8.22 -177.26 -8.43 -177.38 -8.69C-177.5 -8.94 -177.56 -9.22 -177.56 -9.53C-177.56 -10.2 -177.33 -10.74 -176.86 -11.14C-176.38 -11.54 -175.72 -11.74 -174.88 -11.74C-173.84 -11.74 -172.87 -11.32 -171.97 -10.49L-171.32 -11.04C-172.28 -12.05 -173.46 -12.55 -174.85 -12.55C-175.96 -12.55 -176.83 -12.27 -177.48 -11.7C-178.13 -11.13 -178.45 -10.41 -178.45 -9.53C-178.45 -8.68 -178.17 -8 -177.61 -7.48C-177.05 -6.96 -176.22 -6.49 -175.12 -6.07C-174.06 -5.67 -173.24 -5.23 -172.64 -4.75C-172.05 -4.27 -171.76 -3.65 -171.76 -2.88C-171.76 -2.11 -172 -1.53 -172.5 -1.13C-173 -0.73 -173.68 -0.53 -174.56 -0.53C-175.7 -0.53 -176.76 -1.06 -177.73 -2.14L-178.4 -1.56C-177.32 -0.33 -176.03 0.29 -174.54 0.29Z M-164.1 0.29C-163.44 0.29 -162.84 0.12 -162.3 -0.22L-162.2 -1.13C-162.8 -0.74 -163.4 -0.55 -164 -0.55C-164.58 -0.55 -164.97 -0.72 -165.18 -1.06C-165.39 -1.39 -165.49 -1.91 -165.49 -2.62L-165.49 -11.47L-162.37 -11.47L-162.37 -12.26L-165.49 -12.26L-165.49 -17.33L-166.36 -16.9L-166.36 -12.26L-168.44 -12.26L-168.44 -11.47L-166.36 -11.47L-166.36 -2.5C-166.36 -0.64 -165.6 0.29 -164.1 0.29Z M-152.89 0L-143.6 0L-143.6 -0.79L-152.03 -0.79L-152.03 -8.3L-146.7 -8.3L-146.7 -9.1L-152.03 -9.1L-152.03 -16.01L-144.13 -16.01L-144.13 -16.8L-152.89 -16.8Z M-138.06 -11.47L-135.11 -11.47L-135.11 -12.26L-138.06 -12.26L-138.06 -14.38C-138.06 -15.05 -137.95 -15.54 -137.72 -15.84C-137.5 -16.14 -137.12 -16.3 -136.57 -16.3C-136.14 -16.3 -135.65 -16.18 -135.11 -15.94L-135.11 -16.7C-135.59 -16.96 -136.08 -17.09 -136.57 -17.09C-138.14 -17.09 -138.92 -16.22 -138.92 -14.47L-138.92 -12.26L-140.89 -12.26L-140.89 -11.47L-138.92 -11.47L-138.92 0L-138.06 0Z M-130.04 -11.47L-127.09 -11.47L-127.09 -12.26L-130.04 -12.26L-130.04 -14.38C-130.04 -15.05 -129.93 -15.54 -129.71 -15.84C-129.48 -16.14 -129.1 -16.3 -128.56 -16.3C-128.12 -16.3 -127.64 -16.18 -127.09 -15.94L-127.09 -16.7C-127.57 -16.96 -128.06 -17.09 -128.56 -17.09C-130.12 -17.09 -130.91 -16.22 -130.91 -14.47L-130.91 -12.26L-132.88 -12.26L-132.88 -11.47L-130.91 -11.47L-130.91 0L-130.04 0ZM-123.4 -15.19C-123.19 -15.19 -123.02 -15.26 -122.89 -15.4C-122.76 -15.53 -122.7 -15.7 -122.7 -15.89C-122.7 -16.1 -122.76 -16.27 -122.89 -16.42C-123.02 -16.56 -123.19 -16.63 -123.4 -16.63C-123.59 -16.63 -123.75 -16.56 -123.89 -16.42C-124.02 -16.27 -124.09 -16.1 -124.09 -15.89C-124.09 -15.7 -124.02 -15.53 -123.89 -15.4C-123.75 -15.26 -123.59 -15.19 -123.4 -15.19ZM-123.83 0L-122.96 0L-122.96 -12.26L-123.83 -12.26Z M-118.79 0L-110.32 0L-110.32 -0.79L-117.66 -0.79L-110.29 -11.76L-110.29 -12.26L-118.31 -12.26L-118.31 -11.47L-111.44 -11.47L-118.79 -0.53Z M-105.56 -15.19C-105.36 -15.19 -105.19 -15.26 -105.06 -15.4C-104.93 -15.53 -104.87 -15.7 -104.87 -15.89C-104.87 -16.1 -104.93 -16.27 -105.06 -16.42C-105.19 -16.56 -105.36 -16.63 -105.56 -16.63C-105.76 -16.63 -105.92 -16.56 -106.06 -16.42C-106.19 -16.27 -106.26 -16.1 -106.26 -15.89C-106.26 -15.7 -106.19 -15.53 -106.06 -15.4C-105.92 -15.26 -105.76 -15.19 -105.56 -15.19ZM-106 0L-105.13 0L-105.13 -12.26L-106 -12.26Z M-96.04 0.29C-94.72 0.29 -93.57 -0.14 -92.58 -0.98L-93.08 -1.61C-93.93 -0.92 -94.89 -0.58 -95.96 -0.58C-98.56 -0.58 -99.91 -2.34 -100.02 -5.88L-91.6 -5.88L-91.6 -6.14C-91.6 -8.29 -91.99 -9.89 -92.78 -10.96C-93.58 -12.02 -94.66 -12.55 -96.04 -12.55C-97.49 -12.55 -98.68 -11.98 -99.59 -10.85C-100.5 -9.71 -100.96 -8.14 -100.96 -6.14C-100.96 -4.14 -100.52 -2.57 -99.66 -1.43C-98.8 -0.28 -97.59 0.29 -96.04 0.29ZM-100.02 -6.67C-99.92 -8.38 -99.52 -9.66 -98.81 -10.5C-98.1 -11.34 -97.17 -11.76 -96.04 -11.76C-95.11 -11.76 -94.29 -11.38 -93.59 -10.61C-92.88 -9.84 -92.52 -8.53 -92.51 -6.67Z M-80.05 0L-79.19 0L-79.19 -7.49C-79.19 -10.86 -80.5 -12.55 -83.12 -12.55C-83.86 -12.55 -84.57 -12.35 -85.26 -11.94C-85.95 -11.53 -86.44 -10.9 -86.75 -10.06L-86.75 -12.26L-87.61 -12.26L-87.61 0L-86.75 0L-86.75 -7.13C-86.75 -10.2 -85.56 -11.74 -83.2 -11.74C-81.1 -11.74 -80.05 -10.38 -80.05 -7.66Z M-75.2 0L-66.73 0L-66.73 -0.79L-74.08 -0.79L-66.71 -11.76L-66.71 -12.26L-74.72 -12.26L-74.72 -11.47L-67.86 -11.47L-75.2 -0.53Z M-63.23 3.31L-63.01 3.38C-62.69 3.06 -62.4 2.58 -62.14 1.93C-61.87 1.28 -61.74 0.64 -61.74 0C-61.74 -0.74 -62 -1.1 -62.53 -1.1C-62.72 -1.1 -62.89 -1.03 -63.02 -0.89C-63.16 -0.74 -63.23 -0.57 -63.23 -0.36C-63.23 -0.15 -63.16 0.02 -63.01 0.14C-62.87 0.27 -62.68 0.34 -62.46 0.34C-62.46 1.55 -62.72 2.54 -63.23 3.31Z M-44.92 0L-44.05 0L-44.05 -12.26L-44.92 -12.26L-44.92 -5.14C-44.92 -2.05 -46.1 -0.5 -48.47 -0.5C-50.56 -0.5 -51.61 -1.86 -51.61 -4.58L-51.61 -12.26L-52.48 -12.26L-52.48 -4.78C-52.48 -1.4 -51.16 0.29 -48.52 0.29C-46.82 0.29 -45.62 -0.5 -44.92 -2.06Z M-31.55 0L-30.68 0L-30.68 -7.49C-30.68 -10.86 -32 -12.55 -34.62 -12.55C-35.36 -12.55 -36.07 -12.35 -36.76 -11.94C-37.44 -11.53 -37.94 -10.9 -38.24 -10.06L-38.24 -12.26L-39.11 -12.26L-39.11 0L-38.24 0L-38.24 -7.13C-38.24 -10.2 -37.06 -11.74 -34.69 -11.74C-32.6 -11.74 -31.55 -10.38 -31.55 -7.66Z M-22.67 0.29C-21.5 0.29 -20.6 0 -19.96 -0.58C-19.32 -1.15 -19 -1.92 -19 -2.88C-19 -3.44 -19.08 -3.92 -19.25 -4.33C-19.42 -4.74 -19.7 -5.09 -20.09 -5.39C-20.48 -5.68 -20.85 -5.92 -21.2 -6.11C-21.56 -6.29 -22.05 -6.51 -22.69 -6.77C-23.14 -6.94 -23.46 -7.07 -23.64 -7.15C-23.82 -7.23 -24.08 -7.36 -24.42 -7.55C-24.76 -7.73 -24.99 -7.9 -25.13 -8.06C-25.26 -8.22 -25.39 -8.43 -25.51 -8.69C-25.63 -8.94 -25.69 -9.22 -25.69 -9.53C-25.69 -10.2 -25.46 -10.74 -24.98 -11.14C-24.51 -11.54 -23.85 -11.74 -23 -11.74C-21.96 -11.74 -21 -11.32 -20.1 -10.49L-19.45 -11.04C-20.41 -12.05 -21.59 -12.55 -22.98 -12.55C-24.08 -12.55 -24.96 -12.27 -25.61 -11.7C-26.26 -11.13 -26.58 -10.41 -26.58 -9.53C-26.58 -8.68 -26.3 -8 -25.74 -7.48C-25.18 -6.96 -24.35 -6.49 -23.24 -6.07C-22.19 -5.67 -21.36 -5.23 -20.77 -4.75C-20.18 -4.27 -19.88 -3.65 -19.88 -2.88C-19.88 -2.11 -20.13 -1.53 -20.63 -1.13C-21.12 -0.73 -21.81 -0.53 -22.69 -0.53C-23.83 -0.53 -24.88 -1.06 -25.86 -2.14L-26.53 -1.56C-25.44 -0.33 -24.16 0.29 -22.67 0.29Z M-11.05 0.29C-9.74 0.29 -8.59 -0.14 -7.6 -0.98L-8.1 -1.61C-8.95 -0.92 -9.91 -0.58 -10.98 -0.58C-13.57 -0.58 -14.92 -2.34 -15.04 -5.88L-6.61 -5.88L-6.61 -6.14C-6.61 -8.29 -7.01 -9.89 -7.8 -10.96C-8.59 -12.02 -9.68 -12.55 -11.05 -12.55C-12.51 -12.55 -13.69 -11.98 -14.6 -10.85C-15.52 -9.71 -15.97 -8.14 -15.97 -6.14C-15.97 -4.14 -15.54 -2.57 -14.68 -1.43C-13.81 -0.28 -12.6 0.29 -11.05 0.29ZM-15.04 -6.67C-14.94 -8.38 -14.54 -9.66 -13.82 -10.5C-13.11 -11.34 -12.19 -11.76 -11.05 -11.76C-10.12 -11.76 -9.31 -11.38 -8.6 -10.61C-7.9 -9.84 -7.54 -8.53 -7.52 -6.67Z M-2.63 0L-1.76 0L-1.76 -6.79C-1.76 -8.41 -1.4 -9.61 -0.68 -10.4C0.04 -11.2 0.84 -11.59 1.72 -11.59C2.34 -11.59 2.88 -11.46 3.32 -11.18L3.47 -12.05C3.1 -12.38 2.56 -12.55 1.84 -12.55C1.08 -12.55 0.39 -12.31 -0.25 -11.82C-0.89 -11.33 -1.4 -10.61 -1.76 -9.65L-1.76 -12.26L-2.63 -12.26Z M10.02 0.29C11.33 0.29 12.48 -0.14 13.48 -0.98L12.97 -1.61C12.12 -0.92 11.16 -0.58 10.09 -0.58C7.5 -0.58 6.15 -2.34 6.04 -5.88L14.46 -5.88L14.46 -6.14C14.46 -8.29 14.06 -9.89 13.27 -10.96C12.48 -12.02 11.4 -12.55 10.02 -12.55C8.56 -12.55 7.38 -11.98 6.47 -10.85C5.56 -9.71 5.1 -8.14 5.1 -6.14C5.1 -4.14 5.53 -2.57 6.4 -1.43C7.26 -0.28 8.47 0.29 10.02 0.29ZM6.04 -6.67C6.13 -8.38 6.54 -9.66 7.25 -10.5C7.96 -11.34 8.88 -11.76 10.02 -11.76C10.95 -11.76 11.76 -11.38 12.47 -10.61C13.17 -9.84 13.53 -8.53 13.55 -6.67Z M23.89 0L33.08 0L33.08 -0.79L24.76 -0.79L24.76 -16.8L23.89 -16.8Z M40.6 0.29C41.91 0.29 43.06 -0.14 44.05 -0.98L43.55 -1.61C42.7 -0.92 41.74 -0.58 40.67 -0.58C38.08 -0.58 36.72 -2.34 36.61 -5.88L45.04 -5.88L45.04 -6.14C45.04 -8.29 44.64 -9.89 43.85 -10.96C43.06 -12.02 41.97 -12.55 40.6 -12.55C39.14 -12.55 37.96 -11.98 37.04 -10.85C36.13 -9.71 35.68 -8.14 35.68 -6.14C35.68 -4.14 36.11 -2.57 36.97 -1.43C37.84 -0.28 39.04 0.29 40.6 0.29ZM36.61 -6.67C36.71 -8.38 37.11 -9.66 37.82 -10.5C38.54 -11.34 39.46 -11.76 40.6 -11.76C41.52 -11.76 42.34 -11.38 43.04 -10.61C43.75 -9.84 44.11 -8.53 44.12 -6.67Z M49.52 -15.19C49.73 -15.19 49.9 -15.26 50.03 -15.4C50.16 -15.53 50.22 -15.7 50.22 -15.89C50.22 -16.1 50.16 -16.27 50.03 -16.42C49.9 -16.56 49.73 -16.63 49.52 -16.63C49.33 -16.63 49.17 -16.56 49.03 -16.42C48.9 -16.27 48.83 -16.1 48.83 -15.89C48.83 -15.7 48.9 -15.53 49.03 -15.4C49.17 -15.26 49.33 -15.19 49.52 -15.19ZM49.09 0L49.96 0L49.96 -12.26L49.09 -12.26Z M58.79 0.29C60.29 0.29 61.52 -0.39 62.46 -1.75L62.46 0L63.32 0L63.32 -17.33L62.46 -16.9L62.46 -10.46C61.58 -11.86 60.42 -12.55 58.98 -12.55C57.44 -12.55 56.25 -11.99 55.4 -10.86C54.56 -9.73 54.13 -8.16 54.13 -6.14C54.13 -4.18 54.55 -2.61 55.38 -1.45C56.21 -0.29 57.35 0.29 58.79 0.29ZM58.98 -0.58C57.81 -0.58 56.87 -1.11 56.15 -2.17C55.43 -3.24 55.07 -4.56 55.07 -6.14C55.07 -7.92 55.4 -9.29 56.08 -10.25C56.75 -11.21 57.72 -11.69 58.98 -11.69C60.32 -11.69 61.48 -10.86 62.46 -9.22L62.46 -3.1C62.09 -2.38 61.59 -1.78 60.95 -1.3C60.31 -0.82 59.65 -0.58 58.98 -0.58Z M72.35 0.29C73.66 0.29 74.81 -0.14 75.8 -0.98L75.3 -1.61C74.45 -0.92 73.49 -0.58 72.42 -0.58C69.83 -0.58 68.48 -2.34 68.36 -5.88L76.79 -5.88L76.79 -6.14C76.79 -8.29 76.39 -9.89 75.6 -10.96C74.81 -12.02 73.72 -12.55 72.35 -12.55C70.89 -12.55 69.71 -11.98 68.8 -10.85C67.88 -9.71 67.43 -8.14 67.43 -6.14C67.43 -4.14 67.86 -2.57 68.72 -1.43C69.59 -0.28 70.8 0.29 72.35 0.29ZM68.36 -6.67C68.46 -8.38 68.86 -9.66 69.58 -10.5C70.29 -11.34 71.21 -11.76 72.35 -11.76C73.28 -11.76 74.09 -11.38 74.8 -10.61C75.5 -9.84 75.86 -8.53 75.88 -6.67Z M88.33 0L89.2 0L89.2 -7.49C89.2 -10.86 87.88 -12.55 85.26 -12.55C84.52 -12.55 83.81 -12.35 83.12 -11.94C82.44 -11.53 81.94 -10.9 81.64 -10.06L81.64 -12.26L80.77 -12.26L80.77 0L81.64 0L81.64 -7.13C81.64 -10.2 82.82 -11.74 85.19 -11.74C87.28 -11.74 88.33 -10.38 88.33 -7.66Z M97.21 0.29C98.38 0.29 99.28 0 99.92 -0.58C100.56 -1.15 100.88 -1.92 100.88 -2.88C100.88 -3.44 100.8 -3.92 100.63 -4.33C100.46 -4.74 100.18 -5.09 99.79 -5.39C99.4 -5.68 99.03 -5.92 98.68 -6.11C98.32 -6.29 97.83 -6.51 97.19 -6.77C96.74 -6.94 96.42 -7.07 96.24 -7.15C96.06 -7.23 95.8 -7.36 95.46 -7.55C95.12 -7.73 94.89 -7.9 94.75 -8.06C94.62 -8.22 94.49 -8.43 94.37 -8.69C94.25 -8.94 94.19 -9.22 94.19 -9.53C94.19 -10.2 94.42 -10.74 94.9 -11.14C95.37 -11.54 96.03 -11.74 96.88 -11.74C97.92 -11.74 98.88 -11.32 99.78 -10.49L100.43 -11.04C99.47 -12.05 98.29 -12.55 96.9 -12.55C95.8 -12.55 94.92 -12.27 94.27 -11.7C93.62 -11.13 93.3 -10.41 93.3 -9.53C93.3 -8.68 93.58 -8 94.14 -7.48C94.7 -6.96 95.53 -6.49 96.64 -6.07C97.69 -5.67 98.52 -5.23 99.11 -4.75C99.7 -4.27 100 -3.65 100 -2.88C100 -2.11 99.75 -1.53 99.25 -1.13C98.76 -0.73 98.07 -0.53 97.19 -0.53C96.05 -0.53 95 -1.06 94.02 -2.14L93.35 -1.56C94.44 -0.33 95.72 0.29 97.21 0.29Z M108.32 0.29C109.27 0.29 110.09 0.04 110.78 -0.47C111.48 -0.97 111.96 -1.66 112.24 -2.52L111.37 -2.83C111.16 -2.14 110.79 -1.6 110.24 -1.19C109.7 -0.78 109.06 -0.58 108.32 -0.58C107.25 -0.58 106.4 -1.07 105.78 -2.05C105.16 -3.04 104.84 -4.39 104.84 -6.12C104.84 -9.83 106.06 -11.69 108.49 -11.69C109.12 -11.69 109.67 -11.51 110.15 -11.15C110.63 -10.79 110.98 -10.29 111.2 -9.65L112.07 -9.98C111.76 -10.8 111.3 -11.43 110.68 -11.88C110.05 -12.33 109.32 -12.55 108.49 -12.55C107.07 -12.55 105.95 -11.98 105.13 -10.85C104.32 -9.71 103.91 -8.14 103.91 -6.12C103.91 -4.1 104.3 -2.53 105.1 -1.4C105.89 -0.28 106.96 0.29 108.32 0.29Z M116.1 0L116.96 0L116.96 -7.13C116.96 -10.2 118.15 -11.74 120.52 -11.74C122.61 -11.74 123.66 -10.38 123.66 -7.68L123.66 0L124.52 0L124.52 -7.49C124.52 -10.86 123.21 -12.55 120.59 -12.55C119.85 -12.55 119.14 -12.35 118.45 -11.94C117.76 -11.53 117.27 -10.9 116.96 -10.06L116.96 -17.33L116.1 -16.9Z M136.43 0L137.29 0L137.29 -8.59C137.29 -9.36 137.18 -10.02 136.96 -10.56C136.73 -11.1 136.42 -11.52 136.03 -11.8C135.64 -12.08 135.24 -12.27 134.83 -12.38C134.42 -12.5 133.98 -12.55 133.5 -12.55C132.22 -12.55 130.88 -12.14 129.47 -11.33L129.73 -10.58C131.04 -11.37 132.28 -11.76 133.43 -11.76C134.34 -11.76 135.07 -11.5 135.61 -10.99C136.16 -10.48 136.43 -9.56 136.43 -8.23L136.43 -6.41C135.23 -7.19 134.03 -7.58 132.83 -7.58C131.6 -7.58 130.59 -7.25 129.8 -6.59C129.02 -5.92 128.63 -4.96 128.63 -3.7C128.63 -2.43 128.98 -1.45 129.67 -0.76C130.37 -0.06 131.32 0.29 132.54 0.29C133.28 0.29 133.99 0.09 134.68 -0.3C135.36 -0.69 135.95 -1.23 136.43 -1.92ZM132.54 -0.5C131.63 -0.5 130.9 -0.8 130.37 -1.38C129.83 -1.96 129.56 -2.74 129.56 -3.7C129.56 -4.69 129.88 -5.45 130.51 -5.99C131.14 -6.52 131.92 -6.79 132.83 -6.79C134.03 -6.79 135.23 -6.39 136.43 -5.59L136.43 -2.93C135.24 -1.31 133.95 -0.5 132.54 -0.5Z M143.03 -11.47L145.98 -11.47L145.98 -12.26L143.03 -12.26L143.03 -14.38C143.03 -15.05 143.14 -15.54 143.36 -15.84C143.59 -16.14 143.97 -16.3 144.52 -16.3C144.95 -16.3 145.44 -16.18 145.98 -15.94L145.98 -16.7C145.5 -16.96 145.01 -17.09 144.52 -17.09C142.95 -17.09 142.16 -16.22 142.16 -14.47L142.16 -12.26L140.2 -12.26L140.2 -11.47L142.16 -11.47L142.16 0L143.03 0Z M152.44 0.29C153.09 0.29 153.69 0.12 154.24 -0.22L154.33 -1.13C153.74 -0.74 153.14 -0.55 152.53 -0.55C151.96 -0.55 151.56 -0.72 151.36 -1.06C151.15 -1.39 151.04 -1.91 151.04 -2.62L151.04 -11.47L154.16 -11.47L154.16 -12.26L151.04 -12.26L151.04 -17.33L150.18 -16.9L150.18 -12.26L148.09 -12.26L148.09 -11.47L150.18 -11.47L150.18 -2.5C150.18 -0.64 150.93 0.29 152.44 0.29Z M163.98 -15.19C164.19 -15.19 164.36 -15.26 164.48 -15.4C164.61 -15.53 164.68 -15.7 164.68 -15.89C164.68 -16.1 164.61 -16.27 164.48 -16.42C164.36 -16.56 164.19 -16.63 163.98 -16.63C163.79 -16.63 163.62 -16.56 163.49 -16.42C163.35 -16.27 163.28 -16.1 163.28 -15.89C163.28 -15.7 163.35 -15.53 163.49 -15.4C163.62 -15.26 163.79 -15.19 163.98 -15.19ZM163.55 0L164.41 0L164.41 -12.26L163.55 -12.26Z M172.62 0.29C173.79 0.29 174.69 0 175.33 -0.58C175.97 -1.15 176.29 -1.92 176.29 -2.88C176.29 -3.44 176.21 -3.92 176.04 -4.33C175.87 -4.74 175.59 -5.09 175.2 -5.39C174.81 -5.68 174.44 -5.92 174.08 -6.11C173.73 -6.29 173.24 -6.51 172.6 -6.77C172.15 -6.94 171.83 -7.07 171.65 -7.15C171.46 -7.23 171.2 -7.36 170.87 -7.55C170.53 -7.73 170.3 -7.9 170.16 -8.06C170.02 -8.22 169.9 -8.43 169.78 -8.69C169.66 -8.94 169.6 -9.22 169.6 -9.53C169.6 -10.2 169.83 -10.74 170.3 -11.14C170.78 -11.54 171.44 -11.74 172.28 -11.74C173.32 -11.74 174.29 -11.32 175.19 -10.49L175.84 -11.04C174.88 -12.05 173.7 -12.55 172.31 -12.55C171.2 -12.55 170.33 -12.27 169.68 -11.7C169.03 -11.13 168.71 -10.41 168.71 -9.53C168.71 -8.68 168.99 -8 169.55 -7.48C170.11 -6.96 170.94 -6.49 172.04 -6.07C173.1 -5.67 173.92 -5.23 174.52 -4.75C175.11 -4.27 175.4 -3.65 175.4 -2.88C175.4 -2.11 175.16 -1.53 174.66 -1.13C174.16 -0.73 173.48 -0.53 172.6 -0.53C171.46 -0.53 170.4 -1.06 169.43 -2.14L168.76 -1.56C169.84 -0.33 171.13 0.29 172.62 0.29Z M183.06 0.29C183.72 0.29 184.32 0.12 184.86 -0.22L184.96 -1.13C184.36 -0.74 183.76 -0.55 183.16 -0.55C182.58 -0.55 182.19 -0.72 181.98 -1.06C181.77 -1.39 181.67 -1.91 181.67 -2.62L181.67 -11.47L184.79 -11.47L184.79 -12.26L181.67 -12.26L181.67 -17.33L180.8 -16.9L180.8 -12.26L178.72 -12.26L178.72 -11.47L180.8 -11.47L180.8 -2.5C180.8 -0.64 181.56 0.29 183.06 0.29Z M205.33 0L205.33 -16.8L204.47 -16.8L204.47 -2.86L204.47 -1.63L203.72 -2.86L195.11 -16.8L194.27 -16.8L194.27 0L195.13 0L195.13 -13.94L195.13 -15.17L195.88 -13.94L204.49 0Z M217.52 0L218.39 0L218.39 -8.59C218.39 -9.36 218.28 -10.02 218.05 -10.56C217.83 -11.1 217.52 -11.52 217.13 -11.8C216.74 -12.08 216.34 -12.27 215.93 -12.38C215.52 -12.5 215.08 -12.55 214.6 -12.55C213.32 -12.55 211.97 -12.14 210.56 -11.33L210.83 -10.58C212.14 -11.37 213.37 -11.76 214.52 -11.76C215.44 -11.76 216.16 -11.5 216.71 -10.99C217.25 -10.48 217.52 -9.56 217.52 -8.23L217.52 -6.41C216.32 -7.19 215.12 -7.58 213.92 -7.58C212.69 -7.58 211.68 -7.25 210.9 -6.59C210.12 -5.92 209.72 -4.96 209.72 -3.7C209.72 -2.43 210.07 -1.45 210.77 -0.76C211.46 -0.06 212.42 0.29 213.64 0.29C214.37 0.29 215.08 0.09 215.77 -0.3C216.46 -0.69 217.04 -1.23 217.52 -1.92ZM213.64 -0.5C212.72 -0.5 212 -0.8 211.46 -1.38C210.93 -1.96 210.66 -2.74 210.66 -3.7C210.66 -4.69 210.98 -5.45 211.61 -5.99C212.24 -6.52 213.01 -6.79 213.92 -6.79C215.12 -6.79 216.32 -6.39 217.52 -5.59L217.52 -2.93C216.34 -1.31 215.04 -0.5 213.64 -0.5Z M226.43 0.29C227.37 0.29 228.19 0.04 228.89 -0.47C229.58 -0.97 230.07 -1.66 230.34 -2.52L229.48 -2.83C229.27 -2.14 228.89 -1.6 228.35 -1.19C227.8 -0.78 227.16 -0.58 226.43 -0.58C225.36 -0.58 224.51 -1.07 223.88 -2.05C223.26 -3.04 222.95 -4.39 222.95 -6.12C222.95 -9.83 224.16 -11.69 226.6 -11.69C227.22 -11.69 227.77 -11.51 228.25 -11.15C228.73 -10.79 229.08 -10.29 229.31 -9.65L230.17 -9.98C229.87 -10.8 229.4 -11.43 228.78 -11.88C228.16 -12.33 227.43 -12.55 226.6 -12.55C225.17 -12.55 224.05 -11.98 223.24 -10.85C222.42 -9.71 222.01 -8.14 222.01 -6.12C222.01 -4.1 222.41 -2.53 223.2 -1.4C223.99 -0.28 225.07 0.29 226.43 0.29Z M234.2 0L235.07 0L235.07 -7.13C235.07 -10.2 236.25 -11.74 238.62 -11.74C240.72 -11.74 241.76 -10.38 241.76 -7.68L241.76 0L242.63 0L242.63 -7.49C242.63 -10.86 241.32 -12.55 238.69 -12.55C237.96 -12.55 237.24 -12.35 236.56 -11.94C235.87 -11.53 235.37 -10.9 235.07 -10.06L235.07 -17.33L234.2 -16.9Z M247.45 0L248.32 0L248.32 -7.13C248.32 -10.2 249.5 -11.74 251.87 -11.74C253.96 -11.74 255.01 -10.38 255.01 -7.68L255.01 0L255.88 0L255.88 -7.49C255.88 -10.86 254.56 -12.55 251.94 -12.55C251.2 -12.55 250.49 -12.35 249.8 -11.94C249.12 -11.53 248.62 -10.9 248.32 -10.06L248.32 -17.33L247.45 -16.9Z M267.78 0L268.64 0L268.64 -8.59C268.64 -9.36 268.53 -10.02 268.31 -10.56C268.08 -11.1 267.78 -11.52 267.38 -11.8C266.99 -12.08 266.59 -12.27 266.18 -12.38C265.78 -12.5 265.33 -12.55 264.85 -12.55C263.57 -12.55 262.23 -12.14 260.82 -11.33L261.08 -10.58C262.4 -11.37 263.63 -11.76 264.78 -11.76C265.69 -11.76 266.42 -11.5 266.96 -10.99C267.51 -10.48 267.78 -9.56 267.78 -8.23L267.78 -6.41C266.58 -7.19 265.38 -7.58 264.18 -7.58C262.95 -7.58 261.94 -7.25 261.16 -6.59C260.37 -5.92 259.98 -4.96 259.98 -3.7C259.98 -2.43 260.33 -1.45 261.02 -0.76C261.72 -0.06 262.68 0.29 263.89 0.29C264.63 0.29 265.34 0.09 266.03 -0.3C266.72 -0.69 267.3 -1.23 267.78 -1.92ZM263.89 -0.5C262.98 -0.5 262.26 -0.8 261.72 -1.38C261.18 -1.96 260.92 -2.74 260.92 -3.7C260.92 -4.69 261.23 -5.45 261.86 -5.99C262.5 -6.52 263.27 -6.79 264.18 -6.79C265.38 -6.79 266.58 -6.39 267.78 -5.59L267.78 -2.93C266.6 -1.31 265.3 -0.5 263.89 -0.5Z M273.11 0L273.97 0L273.97 -17.33L273.11 -16.9Z M281.82 0.29C282.48 0.29 283.08 0.12 283.62 -0.22L283.72 -1.13C283.12 -0.74 282.52 -0.55 281.92 -0.55C281.34 -0.55 280.95 -0.72 280.74 -1.06C280.53 -1.39 280.43 -1.91 280.43 -2.62L280.43 -11.47L283.55 -11.47L283.55 -12.26L280.43 -12.26L280.43 -17.33L279.56 -16.9L279.56 -12.26L277.48 -12.26L277.48 -11.47L279.56 -11.47L279.56 -2.5C279.56 -0.64 280.32 0.29 281.82 0.29Z M288.08 -15.19C288.29 -15.19 288.46 -15.26 288.59 -15.4C288.72 -15.53 288.78 -15.7 288.78 -15.89C288.78 -16.1 288.72 -16.27 288.59 -16.42C288.46 -16.56 288.29 -16.63 288.08 -16.63C287.89 -16.63 287.73 -16.56 287.59 -16.42C287.46 -16.27 287.39 -16.1 287.39 -15.89C287.39 -15.7 287.46 -15.53 287.59 -15.4C287.73 -15.26 287.89 -15.19 288.08 -15.19ZM287.65 0L288.52 0L288.52 -12.26L287.65 -12.26Z M296.56 5.11C297.29 5.06 297.95 4.96 298.54 4.8C299.12 4.64 299.68 4.4 300.23 4.08C300.77 3.76 301.19 3.3 301.49 2.7C301.78 2.1 301.93 1.38 301.93 0.55L301.93 -12.26L301.07 -12.26L301.07 -10.49C300.78 -11.05 300.32 -11.53 299.7 -11.94C299.08 -12.35 298.34 -12.55 297.49 -12.55C296.05 -12.55 294.89 -11.98 294.01 -10.84C293.13 -9.69 292.69 -8.13 292.69 -6.14C292.69 -4.1 293.14 -2.51 294.05 -1.39C294.95 -0.27 296.07 0.29 297.4 0.29C299.09 0.29 300.32 -0.48 301.07 -2.02L301.07 0.46C301.07 1.69 300.68 2.62 299.92 3.25C299.15 3.88 297.88 4.25 296.1 4.34ZM297.42 -0.58C296.35 -0.58 295.45 -1.08 294.72 -2.08C293.99 -3.08 293.63 -4.43 293.63 -6.14C293.63 -7.92 293.96 -9.29 294.62 -10.25C295.29 -11.21 296.24 -11.69 297.49 -11.69C298.2 -11.69 298.87 -11.48 299.51 -11.08C300.15 -10.67 300.67 -10.09 301.07 -9.34L301.07 -3.22C300.72 -2.46 300.22 -1.84 299.57 -1.33C298.92 -0.83 298.2 -0.58 297.42 -0.58Z M315.56 0L310.98 -8.9L314.05 -12.26L312.97 -12.26L307.74 -6.53L307.74 -17.33L306.88 -16.9L306.88 0L307.74 0L307.74 -5.45L310.36 -8.23L314.58 0Z M322.31 0.29C323.62 0.29 324.77 -0.14 325.76 -0.98L325.26 -1.61C324.41 -0.92 323.45 -0.58 322.38 -0.58C319.79 -0.58 318.44 -2.34 318.32 -5.88L326.75 -5.88L326.75 -6.14C326.75 -8.29 326.35 -9.89 325.56 -10.96C324.77 -12.02 323.68 -12.55 322.31 -12.55C320.85 -12.55 319.67 -11.98 318.76 -10.85C317.84 -9.71 317.39 -8.14 317.39 -6.14C317.39 -4.14 317.82 -2.57 318.68 -1.43C319.55 -0.28 320.76 0.29 322.31 0.29ZM318.32 -6.67C318.42 -8.38 318.82 -9.66 319.54 -10.5C320.25 -11.34 321.17 -11.76 322.31 -11.76C323.24 -11.76 324.05 -11.38 324.76 -10.61C325.46 -9.84 325.82 -8.53 325.84 -6.67Z M331.24 -15.19C331.44 -15.19 331.61 -15.26 331.74 -15.4C331.87 -15.53 331.93 -15.7 331.93 -15.89C331.93 -16.1 331.87 -16.27 331.74 -16.42C331.61 -16.56 331.44 -16.63 331.24 -16.63C331.04 -16.63 330.88 -16.56 330.74 -16.42C330.61 -16.27 330.54 -16.1 330.54 -15.89C330.54 -15.7 330.61 -15.53 330.74 -15.4C330.88 -15.26 331.04 -15.19 331.24 -15.19ZM330.8 0L331.67 0L331.67 -12.26L330.8 -12.26Z M339.59 0.29C340.24 0.29 340.84 0.12 341.39 -0.22L341.48 -1.13C340.89 -0.74 340.29 -0.55 339.68 -0.55C339.11 -0.55 338.72 -0.72 338.51 -1.06C338.3 -1.39 338.2 -1.91 338.2 -2.62L338.2 -11.47L341.32 -11.47L341.32 -12.26L338.2 -12.26L338.2 -17.33L337.33 -16.9L337.33 -12.26L335.24 -12.26L335.24 -11.47L337.33 -11.47L337.33 -2.5C337.33 -0.64 338.08 0.29 339.59 0.29Z M345.95 -4.63L346.19 -4.63L346.52 -11.04L346.52 -17.09L345.61 -17.09L345.61 -11.04ZM346.07 0.34C346.28 0.34 346.44 0.27 346.57 0.13C346.7 0 346.76 -0.17 346.76 -0.36C346.76 -0.57 346.7 -0.74 346.57 -0.89C346.44 -1.03 346.28 -1.1 346.07 -1.1C345.88 -1.1 345.71 -1.03 345.58 -0.89C345.44 -0.74 345.37 -0.57 345.37 -0.36C345.37 -0.17 345.44 0 345.58 0.13C345.71 0.27 345.88 0.34 346.07 0.34Z"></path></g></g></svg>
