<?xml version="1.0" encoding="utf-8"?>
<svg viewBox="0 0 47 65" overflow="visible" xmlns="http://www.w3.org/2000/svg">
  <g id="SvgjsG1013" transform="matrix(0.40660202503204346, 0, 0, 0.40660202503204346, -118.35211181640625, -11.607662200927734)" opacity="1">
    <g id="SvgjsG1015" class="Ll0-LCA4KU" transform="matrix(1.76308, 0, 0, 1.76308, 260.600494, 19.993744)" light-content="true" non-strokable="false" fill="#ffffff">
      <path d="M48.223 24.875v6.543c-16.82.922-30.195 14.875-30.195 31.922 0 17.648 14.328 31.973 31.973 31.973S81.97 80.989 81.97 63.34c0-17.191-13.598-31.234-30.621-31.941v-6.586c4.645 1.383 9.945.668 14.32-2.394 5.074-3.551 7.602-9.352 7.125-14.953a1.562 1.562 0 0 0-.902-1.286c-5.098-2.363-11.41-1.976-16.488 1.579a16.893 16.893 0 0 0-5.512 6.43 16.86 16.86 0 0 0-5.512-6.43C39.306 4.204 32.993 3.817 27.892 6.18a1.565 1.565 0 0 0-.898 1.286c-.477 5.601 2.05 11.402 7.125 14.953 4.308 3.015 9.512 3.75 14.105 2.457zm29.941 32.211a22.053 22.053 0 0 1-1.73 4.91c-2.204 4.516-5.489 5.16-9.079 5.094-1.484-.023-3.02-.188-4.527-.145-1.27.036-2.52.223-3.66.895-2.54 1.484-2.79 2.934-2.957 4.734-.152 1.641-.27 3.496-1.2 5.735-.859 2.062-1.808 2.988-2.71 3.422-.715.343-1.453.422-2.254.347-1.09-.105-2.363-.71-4.035-.168-1.61.528-1.606 1.438-1.942 2.274-.445 1.094-1.101 2.203-3.058 3.101-1.57.723-3.66.95-5.64.918A28.712 28.712 0 0 0 50 92.188c15.918 0 28.844-12.926 28.844-28.848a28.97 28.97 0 0 0-.68-6.254zM66.66 39.797c.46 6.027-5.172 10.457-9.996 11.043-2.27.277-3.246 1.656-3.875 3.258-.54 1.379-.856 2.914-1.3 4.289-1.505 4.672-7.353 6.297-10.899 2.11-1.125-1.333-2.176-1.231-3.25-1.126-1.227.125-2.484.242-3.836-.23-3.453-1.2-5.023-3.852-5.176-7.602-.039-.96-.593-1.98-1.187-2.886a15.807 15.807 0 0 0-1.059-1.438 28.738 28.738 0 0 0-4.93 16.125c0 8.36 3.563 15.895 9.254 21.168h.012s2.266.504 4.813.566c1.558.043 3.234-.058 4.48-.628 1.621-.747 1.547-1.805 1.942-2.676.484-1.082 1.226-2.121 3.39-2.828 1.852-.606 3.352-.309 4.649-.07.46.077.867.23 1.25.046.445-.219.757-.785 1.183-1.812 1.008-2.422.856-4.336 1.114-6.008.332-2.164 1.101-4.055 4.347-5.957 2.477-1.45 5.285-1.395 8.051-1.246 3.078.164 6.137.523 7.988-3.274 3.055-6.246 1.48-11.48 1.477-11.492a29.013 29.013 0 0 0-8.441-9.332zm-3.805-2.281A28.703 28.703 0 0 0 50 34.496c-8.8 0-16.69 3.953-21.98 10.172.512.59 1.156 1.383 1.739 2.27.91 1.387 1.632 3.008 1.691 4.476.094 2.317.95 4.036 3.078 4.778 1.188.414 2.273.054 3.344.008 1.672-.083 3.332.183 5.11 2.28 1.796 2.126 4.769 1.321 5.53-1.05.465-1.438.805-3.031 1.368-4.469 1.027-2.621 2.703-4.77 6.406-5.223 4.055-.492 9.086-4.726 6.57-10.223zM53.27 22.082c3.512.738 7.368.039 10.605-2.227 3.84-2.687 5.903-6.953 5.848-11.199v-.004c-3.976-1.5-8.687-1.023-12.527 1.664-3.234 2.266-5.207 5.653-5.715 9.203l11.922-8.347a1.565 1.565 0 0 1 2.176.387c.496.703.324 1.68-.383 2.171zm-4.96-2.563c-.512-3.55-2.485-6.937-5.72-9.203-3.843-2.687-8.554-3.164-12.53-1.664v.004c-.047 4.246 2.011 8.512 5.851 11.199 3.235 2.266 7.09 2.965 10.602 2.227L34.59 13.73a1.56 1.56 0 1 1 1.79-2.559z" fill-rule="evenodd"/>
    </g>
  </g>
</svg>
