<?xml version="1.0" encoding="utf-8"?>
<svg viewBox="0 0 281.9704284667969 132" overflow="visible" xmlns="http://www.w3.org/2000/svg">
  <g id="SvgjsG1013" transform="matrix(0.4066021144390106, 0, 0, 0.4066021144390106, 0, 0)" opacity="1">
    <g id="SvgjsG1014" class="aTgmEGQDe" transform="translate(221.9136, 0) scale(0.9329327141473491)" light-content="false" non-strokable="false" fill="#1bf886">
      <circle cx="133.8" cy="133.8" r="133.8"/>
    </g>
    <g id="SvgjsG1015" class="Ll0-LCA4KU" transform="translate(258.58774800159114, 36.670813776699845) scale(1.763080282204043)" light-content="true" non-strokable="false" fill="#ffffff">
      <path d="M48.223 24.875v6.543c-16.82.922-30.195 14.875-30.195 31.922 0 17.648 14.328 31.973 31.973 31.973S81.97 80.989 81.97 63.34c0-17.191-13.598-31.234-30.621-31.941v-6.586c4.645 1.383 9.945.668 14.32-2.394 5.074-3.551 7.602-9.352 7.125-14.953a1.562 1.562 0 0 0-.902-1.286c-5.098-2.363-11.41-1.976-16.488 1.579a16.893 16.893 0 0 0-5.512 6.43 16.86 16.86 0 0 0-5.512-6.43C39.306 4.204 32.993 3.817 27.892 6.18a1.565 1.565 0 0 0-.898 1.286c-.477 5.601 2.05 11.402 7.125 14.953 4.308 3.015 9.512 3.75 14.105 2.457zm29.941 32.211a22.053 22.053 0 0 1-1.73 4.91c-2.204 4.516-5.489 5.16-9.079 5.094-1.484-.023-3.02-.188-4.527-.145-1.27.036-2.52.223-3.66.895-2.54 1.484-2.79 2.934-2.957 4.734-.152 1.641-.27 3.496-1.2 5.735-.859 2.062-1.808 2.988-2.71 3.422-.715.343-1.453.422-2.254.347-1.09-.105-2.363-.71-4.035-.168-1.61.528-1.606 1.438-1.942 2.274-.445 1.094-1.101 2.203-3.058 3.101-1.57.723-3.66.95-5.64.918A28.712 28.712 0 0 0 50 92.188c15.918 0 28.844-12.926 28.844-28.848a28.97 28.97 0 0 0-.68-6.254zM66.66 39.797c.46 6.027-5.172 10.457-9.996 11.043-2.27.277-3.246 1.656-3.875 3.258-.54 1.379-.856 2.914-1.3 4.289-1.505 4.672-7.353 6.297-10.899 2.11-1.125-1.333-2.176-1.231-3.25-1.126-1.227.125-2.484.242-3.836-.23-3.453-1.2-5.023-3.852-5.176-7.602-.039-.96-.593-1.98-1.187-2.886a15.807 15.807 0 0 0-1.059-1.438 28.738 28.738 0 0 0-4.93 16.125c0 8.36 3.563 15.895 9.254 21.168h.012s2.266.504 4.813.566c1.558.043 3.234-.058 4.48-.628 1.621-.747 1.547-1.805 1.942-2.676.484-1.082 1.226-2.121 3.39-2.828 1.852-.606 3.352-.309 4.649-.07.46.077.867.23 1.25.046.445-.219.757-.785 1.183-1.812 1.008-2.422.856-4.336 1.114-6.008.332-2.164 1.101-4.055 4.347-5.957 2.477-1.45 5.285-1.395 8.051-1.246 3.078.164 6.137.523 7.988-3.274 3.055-6.246 1.48-11.48 1.477-11.492a29.013 29.013 0 0 0-8.441-9.332zm-3.805-2.281A28.703 28.703 0 0 0 50 34.496c-8.8 0-16.69 3.953-21.98 10.172.512.59 1.156 1.383 1.739 2.27.91 1.387 1.632 3.008 1.691 4.476.094 2.317.95 4.036 3.078 4.778 1.188.414 2.273.054 3.344.008 1.672-.083 3.332.183 5.11 2.28 1.796 2.126 4.769 1.321 5.53-1.05.465-1.438.805-3.031 1.368-4.469 1.027-2.621 2.703-4.77 6.406-5.223 4.055-.492 9.086-4.726 6.57-10.223zM53.27 22.082c3.512.738 7.368.039 10.605-2.227 3.84-2.687 5.903-6.953 5.848-11.199v-.004c-3.976-1.5-8.687-1.023-12.527 1.664-3.234 2.266-5.207 5.653-5.715 9.203l11.922-8.347a1.565 1.565 0 0 1 2.176.387c.496.703.324 1.68-.383 2.171zm-4.96-2.563c-.512-3.55-2.485-6.937-5.72-9.203-3.843-2.687-8.554-3.164-12.53-1.664v.004c-.047 4.246 2.011 8.512 5.851 11.199 3.235 2.266 7.09 2.965 10.602 2.227L34.59 13.73a1.56 1.56 0 1 1 1.79-2.559z" fill-rule="evenodd"/>
    </g>
    <g id="SvgjsG1016" class="text" transform="translate(342.8399993896485, 321.3728012207031) scale(1)" light-content="false" fill="#1bf886">
      <path d="M-145.89 0L-137.67 0L-134.55 -17.76L-117.93 -17.76L-121.05 0L-112.83 0L-105.45 -42L-113.67 -42L-116.61 -25.44L-133.23 -25.44L-130.29 -42L-138.51 -42Z M-80.49 0.72C-74.49 0.72 -69.64 -1.71 -65.94 -6.57C-62.24 -11.43 -60.39 -17.38 -60.39 -24.42C-60.39 -29.5 -61.73 -33.82 -64.41 -37.38C-67.09 -40.94 -70.97 -42.72 -76.05 -42.72C-80.29 -42.72 -84 -41.55 -87.18 -39.21C-90.36 -36.87 -92.73 -33.84 -94.29 -30.12C-95.85 -26.4 -96.63 -22.32 -96.63 -17.88C-96.63 -15.4 -96.33 -13.09 -95.73 -10.95C-95.13 -8.81 -94.22 -6.85 -93 -5.07C-91.78 -3.29 -90.1 -1.88 -87.96 -0.84C-85.82 0.2 -83.33 0.72 -80.49 0.72ZM-80.55 -7.08C-83.27 -7.08 -85.29 -8.13 -86.61 -10.23C-87.93 -12.33 -88.59 -14.88 -88.59 -17.88C-88.59 -22.36 -87.49 -26.32 -85.29 -29.76C-83.09 -33.2 -80.19 -34.92 -76.59 -34.92C-73.83 -34.92 -71.78 -33.89 -70.44 -31.83C-69.1 -29.77 -68.43 -27.3 -68.43 -24.42C-68.43 -19.54 -69.55 -15.43 -71.79 -12.09C-74.03 -8.75 -76.95 -7.08 -80.55 -7.08Z M-30.63 -34.2L-19.29 -34.2L-17.97 -42L-48.81 -42L-50.13 -34.2L-38.79 -34.2L-44.85 0L-36.69 0Z M-13.53 0L13.89 0L15.27 -7.68L-3.99 -7.68L2.07 -42L-6.15 -42Z M41.55 0.72C47.55 0.72 52.4 -1.71 56.1 -6.57C59.8 -11.43 61.65 -17.38 61.65 -24.42C61.65 -29.5 60.31 -33.82 57.63 -37.38C54.95 -40.94 51.07 -42.72 45.99 -42.72C41.75 -42.72 38.04 -41.55 34.86 -39.21C31.68 -36.87 29.31 -33.84 27.75 -30.12C26.19 -26.4 25.41 -22.32 25.41 -17.88C25.41 -15.4 25.71 -13.09 26.31 -10.95C26.91 -8.81 27.82 -6.85 29.04 -5.07C30.26 -3.29 31.94 -1.88 34.08 -0.84C36.22 0.2 38.71 0.72 41.55 0.72ZM41.49 -7.08C38.77 -7.08 36.75 -8.13 35.43 -10.23C34.11 -12.33 33.45 -14.88 33.45 -17.88C33.45 -22.36 34.55 -26.32 36.75 -29.76C38.95 -33.2 41.85 -34.92 45.45 -34.92C48.21 -34.92 50.26 -33.89 51.6 -31.83C52.94 -29.77 53.61 -27.3 53.61 -24.42C53.61 -19.54 52.49 -15.43 50.25 -12.09C48.01 -8.75 45.09 -7.08 41.49 -7.08Z M87.45 0.66C94.13 0.66 99.49 -2.72 103.53 -9.48L96.39 -12.54C95.63 -11.1 94.53 -9.87 93.09 -8.85C91.65 -7.83 89.99 -7.32 88.11 -7.32C85.83 -7.32 84.12 -8.32 82.98 -10.32C81.84 -12.32 81.27 -14.7 81.27 -17.46C81.27 -20.14 81.7 -22.77 82.56 -25.35C83.42 -27.93 84.78 -30.16 86.64 -32.04C88.5 -33.92 90.67 -34.86 93.15 -34.86C94.51 -34.86 95.78 -34.44 96.96 -33.6C98.14 -32.76 99.07 -31.58 99.75 -30.06L107.01 -33.18C106.17 -35.86 104.62 -38.11 102.36 -39.93C100.1 -41.75 97.15 -42.66 93.51 -42.66C89.39 -42.66 85.73 -41.44 82.53 -39C79.33 -36.56 76.92 -33.41 75.3 -29.55C73.68 -25.69 72.87 -21.5 72.87 -16.98C72.87 -11.86 74.11 -7.64 76.59 -4.32C79.07 -1 82.69 0.66 87.45 0.66Z M139.41 0L148.11 0L138.69 -26.28L153.69 -42L143.85 -42L125.55 -22.86L128.91 -42L120.69 -42L113.31 0L121.53 0L123.33 -10.26L132.57 -19.92Z"/>
    </g>
  </g>
</svg>
